<svg width="40" height="80" viewBox="0 0 40 80" fill="none" xmlns="http://www.w3.org/2000/svg">
<path fill-rule="evenodd" clip-rule="evenodd" d="M39 0H1V38H39V0ZM20 26C23.3137 26 26 23.3137 26 20C26 16.6863 23.3137 14 20 14C16.6863 14 14 16.6863 14 20C14 23.3137 16.6863 26 20 26Z" fill="#161616"/>
<path fill-rule="evenodd" clip-rule="evenodd" d="M20 80C31.0457 80 40 71.0457 40 60C40 48.9543 31.0457 40 20 40C8.9543 40 0 48.9543 0 60C0 71.0457 8.9543 80 20 80ZM25 55H15V65H25V55Z" fill="#161616"/>
</svg>
