<svg width="26" height="54" viewBox="0 0 26 54" fill="none" xmlns="http://www.w3.org/2000/svg">
<path d="M20.5833 8.64C20.5833 4.46473 17.1882 1.08 13 1.08C8.81185 1.08 5.41667 4.46473 5.41667 8.64V17.28C5.41667 21.4553 8.81185 24.84 13 24.84C17.1882 24.84 20.5833 21.4553 20.5833 17.28V8.64Z" stroke="#161616" stroke-width="2"/>
<path d="M14.0833 6.75C14.0833 6.00442 13.5983 5.4 13 5.4C12.4017 5.4 11.9167 6.00442 11.9167 6.75V9.45C11.9167 10.1956 12.4017 10.8 13 10.8C13.5983 10.8 14.0833 10.1956 14.0833 9.45V6.75Z" fill="#161616"/>
<path d="M5.41667 35.64L13 43.2L20.5833 35.64" stroke="#161616" stroke-width="1.5"/>
<path d="M5.41667 29.16L13 36.72L20.5833 29.16" stroke="#161616" stroke-width="1.5"/>
</svg>
