<svg width="24" height="24" viewBox="0 0 24 24" fill="none" xmlns="http://www.w3.org/2000/svg">
<g clip-path="url(#clip0)">
<path d="M11.9995 15.5C11.9995 16.3285 11.1055 17 10.2992 17C9.49285 17 9 16.3285 9 15.5L9 14.5C9 15.3285 8.18582 16 7.3795 16C6.57319 16 6 15.3285 6 14.5L6 13L6 13.531C6 14.3595 5.26615 15.031 4.45983 15.031C3.65352 15.031 3 14.3595 3 13.531L3 8.49998C3 4.35798 6.26808 0.999985 10.2992 0.999986C12.3147 0.999986 14.1395 1.83949 15.4607 3.19649L20.6844 9.95549C21.1443 10.5505 21.0966 11.405 20.574 11.9425C20.0056 12.5265 19.0844 12.5265 18.5161 11.9425L16.4602 9.82999C15.8027 9.15449 15 9.633 15 10.588L15 13L15 21.5C15 22.3285 14.3465 23 13.5402 23C12.7338 23 12 22.3285 12 21.5L12 14.5" stroke="#161616" stroke-width="2" stroke-miterlimit="10" stroke-linecap="round" stroke-linejoin="round"/>
</g>
<defs>
<clipPath id="clip0">
<rect width="24" height="24" fill="white" transform="translate(24 24) rotate(-180)"/>
</clipPath>
</defs>
</svg>
